<?xml version="1.0" encoding="UTF-8"?>
<svg id="Layer_1" xmlns="http://www.w3.org/2000/svg" width="172.8611085mm" height="88.1944431mm" version="1.1" viewBox="0 0 490 250">
  <!-- Generator: Adobe Illustrator 30.1.0, SVG Export Plug-In . SVG Version: 2.1.1 Build 136)  -->
  <g id="Layer_3">
    <g>
      <path d="M5.4889998,102.6110001h30.8669991v64.192009c7.7719994.1230011,14.8909988-3.0010071,21.3479996-9.3690033,6.4569969-6.3710022,10.7739983-14.0480042,12.9510002-23.0420074.1119995-.6239929.2289963-1.2480011.3430023-1.8739929.1119995-.625.1679993-1.3110046.1679993-2.0599976.2269974-1.253006.3720016-2.5309982.4309998-3.8410034.0559998-1.3089981.0839996-2.4629974.0839996-3.4649963,0-7.3700027-1.711998-13.1439972-5.1429977-17.3339996-3.4280014-4.1819992-8.0050011-6.2730026-13.7159996-6.2730026l-52.8220024-.1870041,6.5190001-29.038002h49.5570002c14.4080009.125,25.8090019,4.026001,34.2110023,11.7070007,8.4029999,7.6849976,12.8880005,19.8919983,13.4609985,36.6269989v2.435997c0,2.125-.0830002,4.2180023-.2580032,6.2770004-.1699982,2.0580063-.4260025,4.1570053-.7679977,6.2739944-2.401001,14.7380066-9.2019958,28.4160004-20.4080048,41.0289917-11.2050018,12.6150055-26.8700027,19.6089935-46.9860001,20.9790039l-29.8379993-.1829987v-92.8549881h-.0009961Z" fill="#094684"/>
      <path d="M391.7380066,102.6110001h30.8670044v64.192009c7.7680054.1230011,14.8900146-3.0010071,21.3479919-9.3690033,6.4570007-6.3710022,10.7730103-14.0480042,12.9490051-23.0420074.1149902-.6239929.230011-1.2480011.3439941-1.8739929.1130066-.625.1700134-1.3110046.1700134-2.0599976.2269897-1.253006.3680115-2.5309982.4299927-3.8410034.0559998-1.3089981.0859985-2.4629974.0859985-3.4649963,0-7.3700027-1.7149963-13.1439972-5.1440125-17.3339996-3.4289856-4.1819992-8.0050049-6.2730026-13.7170105-6.2730026l-52.8190002-.1880035,6.5169983-29.0370026h49.5579834c14.4089966.1240005,25.8110046,4.026001,34.2130127,11.7070007,8.4039917,7.6849976,12.8880005,19.8919983,13.4609985,36.6269989v2.435997c0,2.125-.0849915,4.2180023-.2590027,6.2770004-.1719971,2.0600052-.4259949,4.1570053-.7690125,6.2750015-2.401001,14.7389984-9.20401,28.4169922-20.4079895,41.0289917-11.20401,12.6159973-26.8670044,19.6100006-46.9850159,20.9799957l-29.8380127-.1829987v-92.8570023h-.0039368v.0000153Z" fill="#dc082c"/>
      <path d="M119.6399994,108.9179993c6.1419983-5.3700027,16.223999-8.0550003,30.25-8.0550003,1.8540039,0,4.3760071.0660019,7.5619965.1880035,3.1869965.125,6.4609985.6259995,9.8249969,1.4990005,5.098999,1.1230011,9.9660034,3.1650009,14.0809937,6.7440033,9.0420074,7.8570023,8.0780029,22.572998,2.9700012,32.9669952-3.7350006,7.595993-8.4750061,12.3029938-12.1849976,15.9250031-3.0139923,2.8739929-5.8849945,5.1820068-8.6040039,6.9309998-2.723999,1.7460022-4.723999,2.8739929-5.9989929,3.371994,1.0429993,1.0010071,2.4850006,1.6560059,4.3480072,1.8730011,11.1179962,1.2859955,21.5540009.1849976,21.5540009.1849976l-8.1690063,25.1029968h-1.625c-20.8119965,0-39.9189911-4.5249939-50.2689972-17.2290039-9.362999-11.4980011-13.9970016-22.7749939-13.9970016-41.4960022.0010071-12.469986,4.114006-22.6339874,10.2580032-28.0069885ZM140.2460022,150.5650024c9.1029968-5.2339935,12.598999-9.1309967,13.875-10.4380035,2.9830017-3.0449982,5.5010071-5.3959961,4.9100037-10.3970032-.9880066-8.3529968-17.7559967-5.1620026-20.3990021,3.2579956-1.8209991,5.8010101.098999,15.2680054,1.6139984,17.5770111h0Z" fill="#094684"/>
      <path d="M301.6210022,70.3209991h84.5549927l-6.9129944,29.0830002h-46.5839844v18.0110016h42.0969849l-6.5589905,28.8909988h-35.5379944v20.6419983h49.8619995l-6.7290039,28.7039948h-74.1900024v-125.3309937h-.0010071Z" fill="#dc082c"/>
      <g>
        <rect x="192.572998" y="103.262001" width="66.730011" height="19.625" fill="#094684"/>
        <g>
          <path d="M247.7799988,126.8119965h-30.0330048l4.5440063,115.9430084h-3.4170074l-4.5469971-115.9430008h-10.2250061s11.427002,64.8499985,12.095993,118.3580093h19.477005c.6740112-53.5090179,12.105011-118.358017,12.105011-118.358017Z" fill="#094684"/>
          <path d="M216.2339935,250h19.4080048c0-.8000031.0070038-1.6049957.0110016-2.4129944h-19.4290009c.0039978.8079987.0099945,1.6129913.0099945,2.4129944Z" fill="#094684"/>
        </g>
      </g>
      <path d="M202.8359985,28.5830002s7.8829956,3.0200005,5.4589996,11.0699997c-2.0050049,6.6459999-9.9069977,15.7000008-14.5570068,27.7779999-4.6529999,12.0780029-.8119965,24.1549988,7.8840027,30.3950043h46.3110046c10.5160065-13.2829971,14.1529999-25.3610001,12.5359955-37.6409988-1.8640137-14.1429977-16.9869995-30.7980003-23.0559998-36.8380013C230.6040039,16.5680008,219.4170074,7.0450001,226.2920074,0,226.2920074,0,217.951004,4.256,217.1930084,13.6879997c-1.2149963,15.0950012,16.7220001,22.6430016,12.1300049,37.4379997-4.2440033,13.689003-25.8809967,16.9079971-19.2079926,35.0239944,0,0-11.3209991-6.6429977-.4060059-20.7320023,5.8710022-7.5709991,10.4169922-12.5890007,11.9340057-18.3170013,3.0289764-11.4739914-8.0900269-19.7269897-18.8070221-18.5179901Z" fill="#dc082c"/>
      <path d="M233.9750061,47.9039993s1.5619965,9.0089989-10.8339996,18.1159973c-11.6820068,8.5830002-11.6100006,16.8600006-8.6410065,22.9199982,0,0-2.772995-10.276001,8.3560028-17.6819992,9.302002-6.1919937,17.0370026-11.9309959,11.1190033-23.3539963Z" fill="#f0b50d"/>
      <path d="M273.6220093,103.262001h-10.526001v19.9379959c4.7600098.9300003,5.8670044,4.0360031,5.8670044,10.5550079v28.4830017c0,8.0059967-1.6619873,10.8699951-9.7070007,10.8699951h-8.7940063v24.052002h23.1610107c8.0409851,0,18.197998-8.7539978,18.197998-19.3209991v-55.2559967c-.0020142-9.5090103-8.3000183-19.3210068-18.1990051-19.3210068Z" fill="#094684"/>
      <g>
        <g>
          <path d="M7.0570002,229.5019989c0-2.8370056-.0279999-3.246994-1.4219999-3.3690033l-.6269999-.0570068c-.2049999-.1470032-.2049999-.6799927.0250001-.8209991,2.1410003-.1820068,4.5159993-.2709961,7.4249997-.2709961,2.8239994,0,4.8409996.2330017,7.0060005,1.0039978,3.5629997,1.3000031,6.0890007,4.4329987,6.0890007,8.8320007,0,3.2830048-1.6389999,6.6470032-5.3150005,8.5169983-2.1119995,1.0610046-4.6599998,1.4149933-7.3699999,1.4149933-1.8039999,0-3.2030001-.1759949-4.3030005-.1759949-1.125,0-2.46.0269928-3.763.0870056-.2399998-.1190033-.2730002-.6499939-.0619998-.8540039l.6500001-.0930023c1.395-.173996,1.6659999-.2630005,1.6659999-3.3970032l.0009995-10.8169861h0ZM10.5,239.1640015c0,2.8659973.2080002,4.401001,3.3590002,4.401001,5.2790003,0,7.6530008-3.7200012,7.6530008-8.7140045,0-5.8500061-3.4109993-8.6849976-8.3730001-8.6849976-1.2419996,0-2.1949997.2359924-2.4019995.4129944-.2080002.1790009-.2370005.7949982-.2370005,2.1860046l-.000001,10.3990021Z" fill="#094684"/>
          <path d="M30.3279991,229.3240051c0-3.1289978-.2679996-3.2480011-1.6590004-3.4219971l-.4799995-.0630035c-.2059994-.2030029-.1720009-.7380066.059-.8560028,1.1289997.0599976,2.5310001.0899963,3.8309994.0899963h5.6710014c1.9020004,0,3.6189995-.0299988,4.0079994-.0899963.1170006.5019989.2970009,2.8359985.473999,4.1060028-.1170006.2339935-.7140007.2960052-.9519997.1190033-.4720001-1.7129974-.9179993-2.423996-1.868-2.6880035-.6800003-.1799927-1.5760002-.2669983-2.375-.2669983h-1.9889984c-1.2750015,0-1.2750015.0579987-1.2750015,1.7420044v4.996994c0,.7649994.0279999.7960052.7109985.7960052h1.4259987c2.5830002,0,3.0250015-.0310059,3.2939987-1.302002l.2070007-1.0039978c.2400017-.2059937.7999992-.2059937.9500008.0269928-.0299988.8029938-.0890007,1.8630066-.0890007,2.9559937,0,1.1230011.0579987,2.1580048.0890007,3.1040039-.1500015.2070007-.7089996.2070007-.9500008.0299988l-.2070007-1.1809998c-.2089996-1.2429962-.7120018-1.3059998-3.2939987-1.3059998h-1.4259987c-.6829987,0-.7109985.0630035-.7109985.8000031v3.7519989c0,1.5099945.0600014,2.5709991.5029984,3.072998.3549995.4140015.8610001.6159973,3.3569984.6519928,3.769001.0299988,4.4210014-.7980042,5.4580002-3.1909943.2700005-.2079926.7739983-.1190033.9490013.1759949-.1749992,1.2460022-.8279991,3.4850006-1.2459984,4.2839966-1.3079987-.0599976-3.8600006-.0879974-7.3320007-.0879974h-3.3829994c-1.2999992,0-3.112999.0269928-4.4519997.0879974-.2369995-.1199951-.2660007-.651001-.0610008-.8549957l1.1030006-.1190033c1.3920002-.1470032,1.6599998-.2359924,1.6599998-3.3699951l-.0009995-10.9899902h0Z" fill="#094684"/>
          <path d="M47.5439987,229.5019989c0-2.6880035-.0279999-3.1600037-1.2750015-3.3079987l-1.0369987-.1179962c-.2080002-.2070007-.2080002-.7079926.0229988-.8220062,2.0830002-.2409973,3.862999-.2709961,6.5600014-.2709961,2.8240013,0,4.8709984.4140015,6.2080002,1.1849976,1.5439987.9140015,2.5200005,2.4819946,2.5200005,4.4290009,0,4.4920044-4.2999992,5.7330017-6.6430016,5.7330017-.269001,0-.5060005,0-.7470016-.029007-.2039986-.1799927-.2420006-.5630035-.0859985-.7409973,2.7000008-.5299988,3.6769981-2.4810028,3.6769981-4.904007,0-2.3910065-1.5400009-4.4869995-4.2389984-4.4869995-1.4830017,0-1.5169983.0879974-1.5169983,1.2400055v12.9089966c0,3.1340027.2680016,3.2230072,1.6650009,3.3699951l1.098999.1179962c.1730003.2050018.1489983.7359924-.0589981.8560028-1.7540016-.0610046-3.0929985-.0879974-4.3959999-.0879974-1.3069992,0-2.6459999.0269928-3.829998.0879974-.2350006-.1199951-.2680016-.651001-.0569992-.8560028l.4729996-.0610046c1.3969994-.1790009,1.6629982-.2940063,1.6629982-3.4279938l-.0020027-10.8149872h0Z" fill="#094684"/>
          <path d="M65.4120026,237.3350067c-.7730026,0-.7440033,0-1.0110016.7980042l-1.2140007,3.5460052c-.5950012,1.7429962-.4790001,1.798996.6209984,1.973999l.8600006.1519928c.2089996.2030029.1800003.7350006-.0579987.8560028-.9490013-.0610046-1.9280014-.0610046-3.1459999-.0890045-.9819984,0-1.8969994.026001-2.9399986.0890045-.2039986-.1499939-.237999-.595993-.0279999-.8560028l.8919983-.1519928c.8580017-.1430054,1.1850014-.3809967,1.6269989-1.3549957.3569984-.7669983.8300018-2.0079956,1.4580002-3.6049957l4.0660019-10.5209961c.3550034-.9420013.6549988-1.6490021.5630035-2.1549988,1.0360031-.2050018,2.0199966-1.4160004,2.0780029-1.4160004.2360001,0,.3860016.0890045.5029984.2350006.4789963,1.3320007.8619995,2.7200012,1.3379974,4.048996l4.276001,12.3820038c.6790009,1.977005.8290024,2.1569977,2.3440018,2.4470062l.4440002.0930023c.2360001.2030029.2360001.7059937.0289993.8560028-1.2149963-.0610046-2.3160019-.0890045-3.8570023-.0890045-1.2750015,0-2.5859985.0570068-3.6220016.0890045-.2360001-.1499939-.2679977-.6809998-.0910034-.8560028l.6549988-.0930023c1.0690002-.1470032,1.2160034-.3209991.7730026-1.5630035l-1.3960037-4.0180054c-.2669983-.7980042-.3850021-.7980042-1.2180023-.7980042l-3.9459915-.0000153h0ZM68.9710007,236.0019989c.8320007,0,.9530029-.0540009.711998-.7640076l-1.2440033-3.548996c-.5319977-1.5679932-.6839981-2.128006-.8320007-2.3329926h-.0579987c-.1200027.2039948-.3889999.9420013-.8919983,2.3329926l-1.2460022,3.4579926c-.2949982.8540039-.2419968.8540039.4729996.8540039h3.0870056v.0010071Z" fill="#094684"/>
          <path d="M81.3769989,229.5019989c0-2.8370056-.0270004-3.1900024-1.4199982-3.3350067l-.7730026-.0910034c-.2080002-.2070007-.2080002-.6809998.0299988-.8220062,1.8639984-.1820068,4.3889999-.2709961,6.8219986-.2709961,2.3160019,0,4.3349991.2969971,5.6409988,1.0039978,1.5179977.7980042,2.6119995,2.1849976,2.6119995,4.3139954,0,2.7180023-2.1060028,4.0780029-3.560997,4.6679993-.177002.0890045-.1179962.3280029,0,.5050049,2.375,3.9860077,3.8590012,6.4949951,5.2539978,7.6470032.8300018.7109985,1.6949997.8890076,2.0479965.9199982.1500015.1179962.1500015.4429932.0589981.5879974-.3529968.0910034-.9199982.1750031-1.9570007.1750031-2.8519974,0-4.3949966-1.151001-6.2060013-3.897995-.8030014-1.2409973-1.6319962-2.8650055-2.3460007-4.0180054-.5299988-.8860016-.8610001-1-1.8379974-1-.8899994,0-.9179993.0249939-.9179993.6470032v3.7810059c0,3.1340027.2630005,3.2230072,1.6579971,3.3959961l.6600037.0919952c.2009964.2050018.1729965.7359924-.0619965.8560028-1.3079987-.0610046-2.6429977-.0879974-3.9459991-.0879974-1.3079987,0-2.6470032.0269928-4.0110016.0879974-.2389984-.1199951-.3300018-.651001-.0579987-.8560028l.651001-.0919952c1.3990021-.173996,1.6610031-.2630005,1.6610031-3.3959961v-10.8139954ZM84.8249969,233.7590027c0,.9440002,0,1.0050049,1.4229965,1.0050049,2.9039993,0,4.2470016-1.4179993,4.2470016-4.2250061,0-2.3320007-1.5169983-4.371994-4.1029968-4.371994-1.5390015,0-1.5680008.0879974-1.5680008,1.4470062v6.144989h.0009995Z" fill="#094684"/>
          <path d="M104.2639999,227.5559998c0-1.2440033-.0270004-1.3009949-.8030014-1.3009949h-1.6620026c-2.7300034,0-3.5319977.3249969-4.6289978,2.7169952-.2099991.1790009-.8300018.0870056-.9509964-.2070007.5059967-1.595993.9509964-3.427002,1.163002-4.4620056.0550003-.0899963.1699982-.1210022.322998-.1210022.1179962,0,.237999.0319977.2929993.1210022.1490021.7389984.5670013.7689972,2.586998.7689972h12.1090012c1.4540024,0,1.8990021-.0899963,2.2570038-.7689972.1159973-.0570068.2360001-.1210022.3560028-.1210022.1760025,0,.3249969.0639954.3820038.1470032-.2979965,1.2180023-.5309982,3.7550049-.4449997,4.697998-.1490021.2389984-.651001.2960052-.9209976.0919952-.3809967-2.3059998-.947998-2.8639984-4.1240005-2.8639984h-1.6869965c-.7789993,0-.8059998.0570068-.8059998,1.3009949v12.7610016c0,3.1340027.2659988,3.2230072,1.663002,3.3699951l1.0709991.1179962c.2030029.2050018.1790009.7359924-.060997.8560028-1.7229996-.0610046-3.060997-.0879974-4.3649979-.0879974-1.3050003,0-2.6989975.0269928-4.5999985.0879974-.2360001-.1199951-.2710037-.7089996-.0599976-.8560028l1.2470016-.1499939c1.3980026-.177002,1.663002-.2039948,1.663002-3.3379974v-12.7609863h-.0000305Z" fill="#094684"/>
          <path d="M142.0220032,243.8059998c.2969971.1179962.2689972.7350006-.0599976.8549957-1.2769928-.0610046-2.4340057-.0879974-3.621994-.0879974-1.3910065,0-2.6710052.0269928-3.9790039.0879974-.2350006-.1199951-.3540039-.6790009-.0529938-.8549957l.8009949-.151001c1.1829987-.2039948,1.2709961-.4120026,1.2709961-2.4179993v-12.0850067h-.0579987c-.8000031,1.6239929-1.2120056,2.5110016-1.7799988,3.6920013l-2.5540009,5.1970062c-1.0070038,2.0709991-2.4909973,5.352005-3.0310059,6.7409973-.1109924.1159973-.5610046.1159973-.7640076,0-.5059967-1.6000061-1.7829971-4.4920044-2.4690018-5.973999l-2.6399994-5.6710052c-.5670013-1.2359924-1.3669968-3.1040039-1.723999-3.9869995h-.0589981c-.060997,1.4450073-.1210022,3.753006-.1760025,4.9940033-.0619965,1.8040009-.1230011,4.4290009-.1230011,6.8509979,0,1.9530029.0329971,2.3970032,1.3099976,2.6320038l.973999.1790009c.2109985.177002.2109985.7350006-.026001.8549957-1.0979996-.0610046-2.0189972-.0879974-3.1159973-.0879974-.9469986,0-2.0250015.0269928-3.1819992.0879974-.262001-.1490021-.262001-.7089996-.0839996-.8549957l.5019989-.0619965c1.4260025-.1790009,1.637001-.6230011,1.8410034-2.4219971.2139969-1.8619995.3000031-3.7799988.4449997-6.8560028.1200027-2.0090027.2979965-4.4600067.2979965-6.2590027,0-1.3930054-.4430008-1.9819946-1.6039963-2.1900024l-1.0049973-.1779938c-.1819992-.2039948-.1529999-.7669983.1190033-.8560028.8880005.0599976,1.6900024.0899963,2.7910004.0899963,1.0390015,0,2.0739975,0,3.1709976-.0899963.1259995,1.776001.8649979,3.3110046,1.6429977,4.9069977l3.2639923,6.8220062c.2330017.5059967,1.0079956,1.9799957,1.3910065,2.6569977.477005-.8549957.8580017-1.6849976,1.5469971-3.0690002l2.7899933-5.6699982c.9519958-1.9550018,1.897995-3.6970062,2.401001-5.647995.8029938.0599976,1.7859955.0899963,2.4360046.0899963,1.246994,0,2.2850037-.0299988,3.1170044-.0899963.3240051.1179962.3820038.6790009.0879974.8560028l-.977005.1470032c-1.3059998.2079926-1.6049957.6790009-1.6049957,2.2449951,0,4.3769989.0590057,8.7489929.2680054,13.1190033.0870056,1.9839935.4120026,2.1600037,1.3650055,2.3029938l.8580017.1539917Z" fill="#094684"/>
          <path d="M146.8899994,229.3240051c0-3.1289978-.272995-3.2480011-1.6660004-3.4219971l-.4730072-.0630035c-.2059937-.2030029-.177002-.7380066.0599976-.8560028,1.128006.0599976,2.5209961.0899963,3.8309937.0899963h5.6660004c1.8990021,0,3.621994-.0299988,4.0099945-.0899963.1199951.5019989.2949982,2.8359985.477005,4.1060028-.1239929.2339935-.7140045.2960052-.9519958.1190033-.4750061-1.7129974-.9199982-2.423996-1.8710022-2.6880035-.6820068-.1799927-1.5780029-.2669983-2.378006-.2669983h-1.9839935c-1.279007,0-1.279007.0579987-1.279007,1.7420044v4.996994c0,.7649994.0319977.7960052.7120056.7960052h1.4299927c2.576004,0,3.0249939-.0310059,3.2920074-1.302002l.2070007-1.0039978c.2350006-.2059937.8009949-.2059937.951004.0269928-.029007.8029938-.0899963,1.8630066-.0899963,2.9559937,0,1.1230011.0610046,2.1580048.0899963,3.1040039-.1499939.2070007-.7149963.2070007-.951004.0299988l-.2070007-1.1809998c-.2070007-1.2429962-.7160034-1.3059998-3.2920074-1.3059998h-1.4299927c-.6799927,0-.7120056.0630035-.7120056.8000031v3.7519989c0,1.5099945.0619965,2.5709991.5039978,3.072998.3600006.4140015.8619995.6159973,3.3560028.6519928,3.7700043.0299988,4.4199982-.7980042,5.4629974-3.1909943.2649994-.2079926.7689972-.1190033.9470062.1759949-.1779938,1.2460022-.8289948,3.4850006-1.246994,4.2839966-1.3040009-.0599976-3.8569946-.0879974-7.3249969-.0879974h-3.3860016c-1.3099976,0-3.1199951.0269928-4.4530029.0879974-.2369995-.1199951-.2709961-.651001-.0590057-.8549957l1.0950012-.1190033c1.3930054-.1470032,1.6660004-.2359924,1.6660004-3.3699951l-.0019836-10.9899902h0Z" fill="#094684"/>
          <path d="M180.4309998,239.5480042c0,.8880005,0,4.5189972.0910034,5.201004-.2400055.3249969-.6560059.4440002-1.0110016.4140015-.4779968-.621994-1.3350067-1.6239929-3.4720001-4.0509949l-6.9470062-7.8840027c-1.9029999-2.1880035-2.8789978-3.2799988-3.3869934-3.7279968-.0859985,0-.0859985.3249969-.0859985,1.8899994v5.7709961c0,2.2070007.0269928,4.9299927.5310059,5.8170013.2720032.4440002.7720032.647995,1.5169983.7339935l.6529999.0919952c.2669983.2050018.2319946.7689972-.0619965.8560028-1.0919952-.0610046-2.2539978-.0879974-3.3840027-.0879974-1.2480011,0-2.0480042.0269928-3.0809937.0879974-.2420044-.1490021-.3000031-.651001-.0590057-.8560028l.6470032-.1499939c.5630035-.1150055,1.1009979-.2039948,1.3099976-.6750031.3840027-.9190063.3840027-3.4869995.3840027-5.8170013v-7.0090027c0-2.302002.0299988-2.7799988-.9790039-3.6329956-.3300018-.2660065-1.1560059-.5050049-1.5720062-.5939941l-.4450073-.0890045c-.2120056-.1779938-.1779938-.7669983.1159973-.8549957,1.1289978.1170044,2.7590027.0890045,3.5.0890045.6269989,0,1.3339996-.0299988,2.0480042-.0890045.5099945,1.2709961,3.7420044,4.9949951,4.7819977,6.1159973l2.9649963,3.1889954c1.2460022,1.3569946,4.0099945,4.4929962,4.3059998,4.6699982.0879974-.0890045.0879974-.2369995.0879974-.7089996v-5.7619934c0-2.2140045-.0279999-4.9320068-.5659943-5.8220062-.2669983-.4420013-.7409973-.6490021-1.4819946-.7380066l-.6779938-.0890045c-.272995-.2030029-.2400055-.7669983.0570068-.8549957,1.1560059.0590057,2.253006.0890045,3.4100037.0890045,1.279007,0,2.0509949-.0299988,3.1159973-.0890045.2420044.1459961.3009949.6499939.0599976.8549957l-.6779938.1470032c-.5650024.1210022-1.0720062.2079926-1.2779999.6790009-.4160004.9179993-.4160004,3.4889984-.4160004,5.8220062l.0019836,7.0630035h0Z" fill="#094684"/>
          <path d="M192.2109985,227.5559998c0-1.2440033-.0310059-1.3009949-.802002-1.3009949h-1.6580048c-2.7330017,0-3.5370026.3249969-4.6329956,2.7169952-.2059937.1790009-.8309937.0870056-.951004-.2070007.5090027-1.595993.951004-3.427002,1.1580048-4.4620056.0630035-.0899963.177002-.1210022.3280029-.1210022.1170044,0,.2380066.0319977.3000031.1210022.1459961.7389984.5619965.7689972,2.5769958.7689972h12.1139984c1.4550018,0,1.8990021-.0899963,2.2570038-.7689972.1179962-.0570068.2339935-.1210022.352005-.1210022.177002,0,.3289948.0639954.3899994.1470032-.2960052,1.2180023-.5370026,3.7550049-.4470062,4.697998-.147995.2389984-.654007.2960052-.9190063.0919952-.3890076-2.3059998-.9530029-2.8639984-4.125-2.8639984h-1.6950073c-.7700043,0-.8000031.0570068-.8000031,1.3009949v12.7610016c0,3.1340027.2709961,3.2230072,1.6640015,3.3699951l1.0720062.1179962c.1999969.2050018.1719971.7359924-.0659943.8560028-1.7200012-.0610046-3.0570068-.0879974-4.3650055-.0879974-1.3049927,0-2.697998.0269928-4.595993.0879974-.2380066-.1199951-.2709961-.7089996-.0570068-.8560028l1.2420044-.1499939c1.3939972-.177002,1.6609955-.2039948,1.6609955-3.3379974v-12.7609863h-.0009918Z" fill="#094684"/>
        </g>
        <g>
          <path d="M268.3349915,234.8809967c0,5.8159943-4.4490051,10.1629944-10.447998,10.1629944-6.7080078,0-10.5690002-4.6950073-10.5690002-9.9559937,0-6.0279999,4.3999939-10.4869995,10.6300049-10.4869995,6.8600159,0,10.3869934,4.901001,10.3869934,10.2799988ZM251.3569946,234.2299957c0,4.0789948,1.7519989,9.6320038,6.8320007,9.6320038,3.381012,0,6.1099854-2.5130005,6.1099854-8.447998,0-4.4609985-2.0150146-9.6329956-6.7380066-9.6329956-2.9679718.0019989-6.2039795,2.1569977-6.2039795,8.4489899Z" fill="#094684"/>
          <path d="M280.4159851,225.0720062c1.8980103,0,3.5599976-.0299988,4.1889954-.0899963,0,.6519928,0,2.8690033.0549927,4.2590027-.1159973.2339935-.651001.2940063-.946991.1159973-.2969971-1.7120056-.7709961-2.572998-1.901001-2.8699951-.7980042-.2030029-1.5429993-.2319946-2.4920044-.2319946h-1.5159912c-1.243988,0-1.243988.0570068-1.243988,1.7140045v5.2870026c0,.7409973.0270081.7940063.7090149.7940063h1.756012c2.5769958,0,3.026001-.0549927,3.3190002-1.2960052l.2380066-1.0039978c.1830139-.2050018.7409973-.2050018.8930054.0269928-.0299988.7709961-.0910034,1.8659973-.0910034,2.9570007,0,1.0950012.0599976,2.1529999.0910034,3.0690002-.1520081.2369995-.7099915.2369995-.8930054.0339966l-.2380066-1.1560059c-.2640076-1.2359924-.7420044-1.2980042-3.3190002-1.2980042h-1.756012c-.6809998,0-.7090149.0619965-.7090149.7960052v4.1360016c0,3.1349945.2609863,3.1620026,1.6610107,3.3370056l1.2449951.1519928c.2090149.2030029.177002.7350006-.0549927.8560028-1.8999939-.0610046-3.2340088-.0890045-4.54599-.0890045-1.3049927,0-2.6380005.026001-4.0029907.0890045-.2380066-.1210022-.2690125-.651001-.0629883-.8560028l.6539917-.0930023c1.394989-.1730042,1.6600037-.2619934,1.6600037-3.3959961v-10.9920044c0-3.1300049-.2659912-3.2189941-1.6600037-3.4230042l-.3869934-.0630035c-.2049866-.2030029-.177002-.7380066.0620117-.8549957,1.0400085.0590057,2.3739929.0890045,3.6789856.0890045l5.6089478.0009918h0Z" fill="#094684"/>
          <path d="M296.2030029,229.3240051c0-3.1289978-.2640076-3.2480011-1.6579895-3.4219971l-.4760132-.0630035c-.2059937-.2030029-.1789856-.7380066.0599976-.8560028,1.1289978.0599976,2.5220032.0899963,3.8269958.0899963h5.6700134c1.8989868,0,3.6210022-.0299988,4.0050049-.0899963.1229858.5019989.3009949,2.8359985.480011,4.1060028-.1229858.2339935-.7099915.2960052-.9509888.1190033-.4750061-1.7129974-.9179993-2.423996-1.8739929-2.6880035-.6799927-.1799927-1.5669861-.2669983-2.3720093-.2669983h-1.9880066c-1.2739868,0-1.2739868.0579987-1.2739868,1.7420044v4.996994c0,.7649994.0310059.7960052.7130127.7960052h1.4230042c2.5840149,0,3.0270081-.0310059,3.2950134-1.302002l.2030029-1.0039978c.2390137-.2059937.8039856-.2059937.9570007.0269928-.0339966.8029938-.0910034,1.8630066-.0910034,2.9559937,0,1.1230011.0570068,2.1580048.0910034,3.1040039-.1530151.2070007-.7170105.2070007-.9570007.0299988l-.2030029-1.1809998c-.2090149-1.2429962-.7109985-1.3059998-3.2950134-1.3059998h-1.4230042c-.6820068,0-.7130127.0630035-.7130127.8000031v3.7519989c0,1.5099945.0559998,2.5709991.506012,3.072998.3540039.4140015.8540039.6159973,3.3510132.6519928,3.7720032.0299988,4.4240112-.7980042,5.4620056-3.1909943.2690125-.2079926.7720032-.1190033.95401.1759949-.1820068,1.2460022-.8340149,3.4850006-1.2479858,4.2839966-1.3070068-.0599976-3.8609924-.0879974-7.3340149-.0879974h-3.3850098c-1.3049927,0-3.1170044.0269928-4.4509888.0879974-.2359924-.1199951-.2720032-.651001-.0570068-.8549957l1.0969849-.1190033c1.3959961-.1470032,1.6589966-.2359924,1.6589966-3.3699951v-10.9920044h-.0030518v.0020142Z" fill="#094684"/>
          <path d="M313.4219971,229.5019989c0-2.8370056-.0270081-3.246994-1.4230042-3.3690033l-.6270142-.0570068c-.2049866-.1470032-.2049866-.6799927.0299988-.8209991,2.1409912-.1820068,4.5119934-.2709961,7.4200134-.2709961,2.8269958,0,4.8410034.2330017,7.0090027,1.0039978,3.5620117,1.3000031,6.0870056,4.4329987,6.0870056,8.8320007,0,3.2830048-1.6369934,6.6470032-5.3160095,8.5169983-2.1069946,1.0610046-4.6600037,1.4149933-7.3599854,1.4149933-1.8110046,0-3.2059937-.1759949-4.3039856-.1759949-1.1329956,0-2.4679871.0269928-3.7709961.0870056-.2359924-.1190033-.2690125-.6499939-.0589905-.8540039l.651001-.0930023c1.3959961-.173996,1.6619873-.2630005,1.6619873-3.3970032l.0009766-10.8169861h0ZM316.8649902,239.1640015c0,2.8659973.2080078,4.401001,3.3580017,4.401001,5.2810059,0,7.6529846-3.7200012,7.6529846-8.7140045,0-5.8500061-3.4119873-8.6849976-8.3680115-8.6849976-1.2460022,0-2.196991.2359924-2.4060059.4129944-.20401.1790009-.2369995.7949982-.2369995,2.1860046v10.3990021h.0000305Z" fill="#094684"/>
          <path d="M336.5159912,229.3240051c0-3.1289978-.2690125-3.1909943-1.6640015-3.4219971l-.5050049-.0919952c-.20401-.2050018-.1749878-.7089996.0610046-.8269958,1.1860046.0599976,2.5209961.0899963,3.8299866.0899963,1.3359985,0,2.67099-.0299988,3.9790039-.0899963.2380066.1179962.2659912.621994.0580139.8269958l-.6520081.0919952c-1.3970032.173996-1.6650085.2929993-1.6650085,3.4219971v6.7689972c0,4.0769958,1.2479858,7.5039978,5.375,7.5039978,3.8909912,0,5.4890137-2.923996,5.4890137-7.4160004v-3.6909943c0-2.2140045-.0249939-4.9680023-.5589905-5.822998-.2709961-.4409943-.7449951-.6490021-1.4830017-.7630005l-.598999-.0919952c-.2690125-.2059937-.2369995-.7369995.0580139-.8280029,1.0109863.0599976,2.1400146.0910034,3.2980042.0910034,1.2470093,0,2.0490112-.0310059,3.1459961-.0910034.2409973.1459961.2980042.621994.0610046.8280029l-.6530151.1459961c-.5650024.1190033-1.098999.2369995-1.3070068.7079926-.4159851.8919983-.4159851,3.4889984-.4159851,5.822998v3.5149994c0,2.6900024-.4159851,5.173996-1.9649963,6.8269958-1.5369873,1.6549988-3.7650146,2.2140045-5.8169861,2.2140045-2.7860107,0-4.7420044-.5859985-6.1130066-1.8899994-1.3320007-1.2700043-1.9549866-3.3379974-1.9549866-6.326004l-.0020447-7.5049896h0Z" fill="#094684"/>
          <path d="M374.8039856,230.0339966c-.2120056.2389984-.7409973.2669983-.9509888.0630035-.5039978-1.8659973-1.8359985-4.3159943-5.7579956-4.3159943-3.7669983,0-7.5690002,2.6600037-7.5690002,8.7160034,0,6.2960052,3.947998,9.3650055,7.7839966,9.3650055,3.7380066,0,5.3670044-2.4810028,6.2009888-4.4019928.2650146-.2660065.7390137-.1499939.8850098.1190033-.2059937,1.9779968-1.0050049,3.9329987-1.4190063,4.4860077-.3559875.0619965-.7109985.1799927-1.0400085.2709961-.6539917.2039948-2.7000122.7070007-4.6270142.7070007-2.9410095,0-5.4679871-.5859985-7.6019897-1.9790039-2.4079895-1.5659943-4.2210083-4.2550049-4.2210083-8.121994,0-3.4579926,1.5429993-6.1459961,3.743988-7.8300018,2.1950073-1.6560059,5.1910095-2.5130005,8.1900024-2.5130005,1.6950073,0,3.7390137.298996,5.1380005.6529999.3559875.0839996.5629883.1150055.8309937.1730042.0550537.6809692.1220398,2.4269714.414032,4.608963Z" fill="#094684"/>
          <path d="M382.0169983,237.3350067c-.7669983,0-.7420044,0-1.006012.7980042l-1.2179871,3.5460052c-.5929871,1.7429962-.4700012,1.798996.6220093,1.973999l.8590088.1519928c.2120056.2030029.1809998.7350006-.0599976.8560028-.9460144-.0610046-1.928009-.0610046-3.1430054-.0890045-.980011,0-1.8980103.026001-2.9389954.0890045-.20401-.1499939-.2380066-.595993-.0299988-.8560028l.8930054-.1519928c.8569946-.1430054,1.1830139-.3809967,1.631012-1.3549957.355011-.7669983.8320007-2.0079956,1.4530029-3.6049957l4.0710144-10.5209961c.3500061-.9420013.6520081-1.6490021.5620117-2.1549988,1.0409851-.2050018,2.0159912-1.4160004,2.0750122-1.4160004.2380066,0,.3900146.0890045.5039978.2350006.480011,1.3320007.8630066,2.7200012,1.3370056,4.048996l4.2749939,12.3820038c.6839905,1.977005.8299866,2.1569977,2.3450012,2.4470062l.4450073.0930023c.2369995.2030029.2369995.7059937.0270081.8560028-1.2160034-.0610046-2.3139954-.0890045-3.8540039-.0890045-1.2730103,0-2.5830078.0570068-3.6239929.0890045-.2369995-.1499939-.2659912-.6809998-.0889893-.8560028l.6539917-.0930023c1.0639954-.1470032,1.2149963-.3209991.7730103-1.5630035l-1.3989868-4.0180054c-.2650146-.7980042-.3850098-.7980042-1.2139893-.7980042l-3.9501343-.0000153h0ZM385.5799866,236.0019989c.8320007,0,.9460144-.0540009.7090149-.7640076l-1.2430115-3.548996c-.5329895-1.5679932-.6849976-2.128006-.8309937-2.3329926h-.0599976c-.118988.2039948-.3859863.9420013-.8900146,2.3329926l-1.2510071,3.4579926c-.2929993.8540039-.2349854.8540039.473999.8540039h3.0920105v.0010071Z" fill="#094684"/>
          <path d="M400.5069885,227.5559998c0-1.2440033-.0280151-1.3009949-.7969971-1.3009949h-1.6650085c-2.7290039,0-3.5299988.3249969-4.6319885,2.7169952-.2099915.1790009-.8259888.0870056-.9519958-.2070007.5109863-1.595993.9519958-3.427002,1.1610107-4.4620056.0629883-.0899963.1799927-.1210022.3269958-.1210022.118988,0,.2390137.0319977.2969971.1210022.151001.7389984.5629883.7689972,2.5820007.7689972h12.1130066c1.4549866,0,1.8980103-.0899963,2.2579956-.7689972.1159973-.0570068.2349854-.1210022.3540039-.1210022.1759949,0,.3269958.0639954.3829956.1470032-.2940063,1.2180023-.5329895,3.7550049-.4440002,4.697998-.1480103.2389984-.6520081.2960052-.92099.0919952-.3890076-2.3059998-.947998-2.8639984-4.1239929-2.8639984h-1.6929932c-.769989,0-.7999878.0570068-.7999878,1.3009949v12.7610016c0,3.1340027.269989,3.2230072,1.6619873,3.3699951l1.0669861.1179962c.2120056.2050018.178009.7359924-.0570068.8560028-1.7250061-.0610046-3.0559998-.0879974-4.3680115-.0879974-1.2999878,0-2.6960144.0269928-4.5960083.0879974-.2390137-.1199951-.2680054-.7089996-.0589905-.8560028l1.2479858-.1499939c1.394989-.177002,1.6560059-.2039948,1.6560059-3.3379974v-12.7609863h0Z" fill="#094684"/>
          <path d="M419.2390137,240.3159943c0,3.1340027.2659912,3.2230072,1.6619873,3.3959961l.6539917.0919952c.20401.2050018.1749878.7359924-.0620117.8560028-1.303009-.0610046-2.6440125-.0879974-3.947998-.0879974-1.3059998,0-2.7009888.0269928-4.006012.0879974-.2399902-.1199951-.2690125-.651001-.0629883-.8560028l.6530151-.0919952c1.394989-.173996,1.6640015-.2630005,1.6640015-3.3959961v-10.9929962c0-3.1289978-.2709961-3.2169952-1.6640015-3.3959961l-.6530151-.0890045c-.2049866-.2030029-.178009-.7380066.0629883-.8549957,1.3049927.0590057,2.6409912.0890045,4.006012.0890045,1.3049927,0,2.6459961-.0299988,3.947998-.0890045.2359924.1170044.2659912.6499939.0620117.8549957l-.6539917.0890045c-1.3970032.1799927-1.6619873.2680054-1.6619873,3.3959961v10.9929962Z" fill="#094684"/>
          <path d="M445.0299988,234.8809967c0,5.8159943-4.4500122,10.1629944-10.446991,10.1629944-6.7049866,0-10.5660095-4.6950073-10.5660095-9.9559937,0-6.0279999,4.3959961-10.4869995,10.6289978-10.4869995,6.855011,0,10.3840027,4.901001,10.3840027,10.2799988ZM428.0539856,234.2299957c0,4.0789948,1.7520142,9.6320038,6.8299866,9.6320038,3.381012,0,6.1130066-2.5130005,6.1130066-8.447998,0-4.4609985-2.0209961-9.6329956-6.7409973-9.6329956-2.9699707.0019989-6.2019958,2.1569977-6.2019958,8.4489899Z" fill="#094684"/>
          <path d="M466.1369934,239.5480042c0,.8880005,0,4.5189972.0910034,5.201004-.2399902.3249969-.6549988.4440002-1.0079956.4140015-.4779968-.621994-1.3389893-1.6239929-3.4790039-4.0509949l-6.9460144-7.8840027c-1.8989868-2.1880035-2.8770142-3.2799988-3.381012-3.7279968-.0889893,0-.0889893.3249969-.0889893,1.8899994v5.7709961c0,2.2070007.0270081,4.9299927.5369873,5.8170013.2640076.4440002.7680054.647995,1.5100098.7339935l.6530151.0919952c.2650146.2050018.2390137.7689972-.0629883.8560028-1.0939941-.0610046-2.2569885-.0879974-3.3789978-.0879974-1.2510071,0-2.0499878.0269928-3.0889893.0879974-.2369995-.1490021-.2999878-.651001-.0620117-.8560028l.6570129-.1499939c.5629883-.1150055,1.0969849-.2039948,1.3049927-.6750031.3829956-.9190063.3829956-3.4869995.3829956-5.8170013v-7.0090027c0-2.302002.0329895-2.7799988-.9729919-3.6329956-.3320007-.2660065-1.1640015-.5050049-1.5809937-.5939941l-.4389954-.0890045c-.2109985-.1779938-.1830139-.7669983.1099854-.8549957,1.1350098.1170044,2.7650146.0890045,3.5090027.0890045.6180115,0,1.3309937-.0299988,2.0440063-.0890045.506012,1.2709961,3.743988,4.9949951,4.7799988,6.1159973l2.9729919,3.1889954c1.2390137,1.3569946,4.0079956,4.4929962,4.303009,4.6699982.0870056-.0890045.0870056-.2369995.0870056-.7089996v-5.7619934c0-2.2140045-.0249939-4.9320068-.5629883-5.8220062-.2659912-.4420013-.7409973-.6490021-1.4819946-.7380066l-.6839905-.0890045c-.269989-.2030029-.2380066-.7669983.0559998-.8549957,1.1579895.0590057,2.2569885.0890045,3.4150085.0890045,1.2749939,0,2.0499878-.0299988,3.1170044-.0890045.2380066.1459961.2999878.6499939.0629883.8549957l-.6759949.1470032c-.5740051.1210022-1.0759888.2079926-1.2810059.6790009-.4190063.9179993-.4190063,3.4889984-.4190063,5.8220062v7.0619965h.000946v.0010071Z" fill="#094684"/>
        </g>
      </g>
    </g>
  </g>
</svg>